# 3ds Max Wavefront OBJ Exporter v0.97b - (c)2007 guruware
# File Created: 17.11.2019 22:48:25

mtllib cielo.mtl

#
# object l
#

v  19.41747 0.00000 32.62136
v  19.41747 0.00000 -33.39806
v  19.41747 55.14563 -33.39806
v  19.41747 55.14563 32.62136
# 4 vertices

vn 1.00000 0.00000 -0.00000
# 1 vertex normals

vt 0.00000 0.00000 0.00000
vt 1.00000 0.00000 0.00000
vt 1.00000 1.00000 0.00000
vt 0.00000 1.00000 0.00000
# 4 texture coords

o l
g l
usemtl r
s 16
f 1/1/1 2/2/1 3/3/1 
f 3/3/1 4/4/1 1/1/1 
# 2 faces

#
# object f
#

v  19.41747 0.00000 -33.39806
v  -47.37864 0.00000 -33.39806
v  -47.37864 55.14563 -33.39806
v  19.41747 55.14563 -33.39806
# 4 vertices

vn 0.00000 0.00000 -1.00000
# 1 vertex normals

vt 0.00000 0.00000 0.00000
vt 1.00000 0.00000 0.00000
vt 1.00000 1.00000 0.00000
vt 0.00000 1.00000 0.00000
# 4 texture coords

o f
g f
usemtl f
s 32
f 5/5/2 6/6/2 7/7/2 
f 7/7/2 8/8/2 5/5/2 
# 2 faces

#
# object r
#

v  -47.37864 0.00000 -33.39806
v  -47.37864 0.00000 32.62136
v  -47.37864 55.14563 32.62136
v  -47.37864 55.14563 -33.39806
# 4 vertices

vn -1.00000 0.00000 -0.00000
# 1 vertex normals

vt 0.00000 0.00000 0.00000
vt 1.00000 0.00000 0.00000
vt 1.00000 1.00000 0.00000
vt 0.00000 1.00000 0.00000
# 4 texture coords

o r
g r
usemtl l
s 64
f 9/9/3 10/10/3 11/11/3 
f 11/11/3 12/12/3 9/9/3 
# 2 faces

#
# object u
#

v  -47.37864 55.14563 32.62136
v  19.41747 55.14563 32.62136
v  19.41747 55.14563 -33.39806
v  -47.37864 55.14563 -33.39806
# 4 vertices

vn 0.00000 1.00000 -0.00000
# 1 vertex normals

vt 0.01367 1.01361 0.50000
vt -0.00192 0.00197 0.50000
vt 0.98633 -0.01361 0.50000
vt 1.00192 0.99803 0.50000
# 4 texture coords

o u
g u
usemtl u
s 4
f 13/13/4 14/14/4 15/15/4 
f 15/15/4 16/16/4 13/13/4 
# 2 faces

#
# object b
#

v  -47.37864 0.00000 32.62136
v  19.41747 0.00000 32.62136
v  19.41747 55.14563 32.62136
v  -47.37864 55.14563 32.62136
# 4 vertices

vn 0.00000 0.00000 1.00000
# 1 vertex normals

vt 0.00000 0.00000 0.00000
vt 1.00000 0.00000 0.00000
vt 1.00000 1.00000 0.00000
vt 0.00000 1.00000 0.00000
# 4 texture coords

o b
g b
usemtl b
s 8
f 17/17/5 18/18/5 19/19/5 
f 19/19/5 20/20/5 17/17/5 
# 2 faces

#
# object d
#

v  -47.37864 0.00000 32.62136
v  -47.37864 0.00000 -33.39806
v  19.41747 0.00000 -33.39806
v  19.41747 0.00000 32.62136
# 4 vertices

vn 0.00000 -1.00000 -0.00000
# 1 vertex normals

vt -0.00137 0.00141 0.50000
vt 0.98690 -0.01307 0.50000
vt 1.00137 0.99859 0.50000
vt 0.01310 1.01307 0.50000
# 4 texture coords

o d
g d
usemtl d
s 2
f 21/21/6 22/22/6 23/23/6 
f 23/23/6 24/24/6 21/21/6 
# 2 faces

