# 3ds Max Wavefront OBJ Exporter v0.97b - (c)2007 guruware
# File Created: 24.11.2019 17:31:49

mtllib AlaDer.mtl

#
# object Wing_Right
#

v  -0.0031 46.3349 -10.1638
v  -0.0014 44.3165 -9.6963
v  -2.0240 43.7739 -10.4668
v  -2.0569 46.3707 -11.5662
v  -1.8758 48.9619 -11.0171
v  -0.0035 48.3582 -9.9547
v  -3.0032 48.5010 -41.9771
v  -2.8378 53.8885 -41.4955
v  -3.0684 43.7866 -34.0251
v  -3.0787 42.7667 -36.4669
v  -3.9646 74.3520 -28.8089
v  -4.0689 73.8376 -25.7474
v  -4.1101 74.0920 -25.0447
v  -2.9880 40.4540 -9.4049
v  -3.4735 40.1842 -9.5412
v  -3.5112 41.3095 -12.8865
v  -3.0879 41.6070 -12.8327
v  -3.5112 41.4026 -15.6535
v  -3.1323 41.7039 -15.7113
v  -3.1279 41.0514 -17.1998
v  -3.5112 40.6535 -17.3622
v  -3.5112 42.5455 -18.1231
v  -3.1541 42.6988 -17.8623
v  -3.5112 44.2508 -19.5030
v  -3.1595 44.5121 -19.3297
v  -3.1363 45.2812 -21.9971
v  -3.5112 44.9766 -22.0204
v  -3.5112 44.6629 -24.4643
v  -3.0955 44.9490 -24.5851
v  -3.0904 43.3806 -26.5599
v  -3.5112 43.1867 -26.3230
v  -3.1963 42.3911 -27.4318
v  -3.5086 42.0529 -27.4220
v  -3.5112 43.1562 -28.7846
v  -3.0698 44.2993 -27.7708
v  -3.0434 45.5735 -29.6180
v  -3.5112 44.0988 -30.9795
v  -3.5112 43.5133 -33.8673
v  -3.5112 41.6649 -35.5001
v  -3.1280 40.5003 -36.1936
v  -3.5119 40.2157 -36.0928
v  -3.5112 40.8272 -37.2891
v  -3.0311 41.3095 -37.3384
v  -3.5112 41.0818 -39.6043
v  -3.0508 41.3883 -39.6545
v  -3.1323 41.2964 -42.2700
v  -3.5112 39.9067 -42.1392
v  -3.1861 37.7955 -44.0272
v  -3.5113 37.1141 -43.7878
v  -3.2752 35.3167 -45.0969
v  -3.5184 34.9476 -44.8596
v  -3.4918 39.7259 -45.0273
v  -3.1580 39.5138 -44.9489
v  -3.5009 50.1330 -43.1990
v  -3.5306 55.1675 -41.1067
v  -2.8946 61.1033 -36.7489
v  -3.4758 61.5232 -37.2180
v  -3.5067 65.5160 -33.5556
v  -2.8740 64.6914 -32.2784
v  -3.5057 70.9425 -26.4002
v  -2.7388 70.7541 -25.9064
v  -3.5112 72.7150 -24.6142
v  -2.8544 72.8563 -24.2883
v  -2.9534 73.8376 -25.7474
v  -3.5112 73.5540 -25.8617
v  -3.0576 74.3523 -28.7867
v  -3.5112 74.0864 -28.8784
v  -3.5112 74.4332 -29.6178
v  -3.5112 74.6314 -28.8597
v  -3.5112 74.3880 -24.9846
v  -2.9122 74.0920 -25.0447
v  -2.7852 73.4297 -23.1570
v  -3.5112 73.6613 -22.9135
v  -2.9536 72.3529 -22.9825
v  -3.5112 72.3538 -22.5268
v  -2.8082 70.2945 -23.5908
v  -3.5332 69.5251 -22.9696
v  -3.5060 61.3328 -23.0929
v  -2.4381 60.4702 -23.5871
v  -3.5109 55.7257 -22.0964
v  -2.6134 53.9756 -24.3061
v  -2.3355 53.9127 -21.3646
v  -3.4969 54.1274 -20.6397
v  -3.5064 52.9306 -16.4561
v  -2.4940 50.6700 -16.4539
v  -3.4645 51.8036 -10.2542
v  -2.1616 51.1466 -9.8605
v  -4.5124 50.5449 -16.3565
v  -4.6634 51.1725 -9.6916
v  -4.6868 53.9127 -21.3646
v  -4.7897 54.8451 -22.1644
v  -4.5843 60.4702 -23.5871
v  -4.3294 69.7129 -23.5123
v  -4.2679 72.3615 -22.8411
v  -4.2372 73.4297 -23.1570
v  -4.1679 72.8563 -24.2883
v  -4.2843 70.6797 -25.8340
v  -4.1486 64.6907 -32.2847
v  -4.2511 61.1223 -36.8057
v  -4.1276 54.2866 -38.4739
v  -4.0187 48.4835 -41.9738
v  -3.8888 39.5198 -44.9322
v  -3.7086 35.4935 -44.9970
v  -3.8362 37.7954 -44.0272
v  -3.8900 41.2964 -42.2700
v  -3.9716 41.3883 -39.6545
v  -3.9124 41.3124 -37.3321
v  -3.9643 40.4026 -36.1755
v  -4.1465 42.7381 -36.4499
v  -3.9540 43.7866 -34.0251
v  -3.9887 45.6627 -29.7433
v  -4.0790 44.4679 -27.7013
v  -3.9293 42.2461 -27.4005
v  -3.9514 44.3348 -26.1089
v  -3.9269 44.9490 -24.5851
v  -3.8861 45.2812 -21.9971
v  -3.8628 44.5121 -19.3297
v  -3.8683 42.6988 -17.8623
v  -3.7912 41.0514 -17.1998
v  -3.8901 41.7039 -15.7113
v  -3.9344 41.6070 -12.8327
v  -3.9154 40.6354 -9.4034
v  -2.0758 42.0803 -9.2356
v  -4.6637 48.9853 -9.8285
v  -4.4609 46.3433 -10.3976
v  -4.4095 41.9385 -8.7146
v  -4.5592 43.7810 -9.5875
# 127 vertices

vn 0.5623 -0.0559 -0.8250
vn 0.3963 -0.2069 -0.8945
vn 0.8410 -0.2330 -0.4883
vn 0.8783 -0.0829 -0.4709
vn 0.9322 0.0943 -0.3496
vn 0.5130 0.0883 -0.8539
vn 0.9883 0.0148 -0.1521
vn 0.5689 0.1322 -0.8117
vn 0.8818 -0.4394 0.1714
vn 0.9950 -0.0531 0.0850
vn -0.9642 0.0277 -0.2638
vn -0.8767 -0.4333 -0.2092
vn -0.8315 0.5514 0.0677
vn 0.7124 -0.6587 -0.2423
vn -0.1037 -0.9431 -0.3161
vn -0.0021 -0.9840 -0.1781
vn 0.7925 -0.5997 -0.1110
vn -0.0000 -0.9821 0.1886
vn 0.9016 -0.4293 0.0531
vn 0.8739 -0.4483 -0.1883
vn -0.0574 -0.9243 -0.3774
vn 0.0000 -0.5067 -0.8621
vn 0.8853 -0.2196 -0.4099
vn 0.0000 -0.8334 -0.5527
vn 0.9189 -0.3290 -0.2180
vn 0.9029 -0.4293 -0.0214
vn -0.0000 -0.9971 -0.0764
vn 0.0000 -0.9213 0.3889
vn 0.8916 -0.4092 0.1940
vn 0.8976 -0.3409 0.2797
vn -0.1896 -0.7197 0.6679
vn 0.7854 -0.5114 -0.3486
vn 0.1614 -0.9860 0.0423
vn 0.0212 -0.8638 -0.5033
vn 0.9894 -0.1104 -0.0947
vn 0.9874 -0.1580 -0.0047
vn -0.0108 -0.9989 0.0465
vn -0.0000 -0.8660 0.5000
vn 0.0755 -0.4973 0.8643
vn 0.7626 -0.4927 0.4191
vn 0.0991 -0.9317 0.3494
vn -0.0513 -0.9455 -0.3216
vn 0.9490 -0.3090 -0.0633
vn -0.0000 -0.9869 0.1616
vn 0.8833 -0.4686 -0.0154
vn 0.9949 -0.0965 0.0276
vn 0.0000 -0.6289 0.7775
vn 0.9635 -0.1363 0.2302
vn 0.0022 -0.4621 0.8868
vn 0.4631 -0.4911 -0.7378
vn -0.0789 -0.9969 -0.0069
vn 0.0050 0.1012 -0.9949
vn 0.7805 0.0665 -0.6216
vn 0.0081 0.3182 -0.9480
vn -0.4447 0.4376 -0.7815
vn 0.9127 0.2762 -0.3012
vn 0.0933 0.6022 -0.7929
vn 0.0008 0.7308 -0.6826
vn 0.9756 0.1585 -0.1518
vn -0.0438 0.7617 -0.6464
vn 0.8971 0.2976 -0.3267
vn -0.0003 0.0135 -0.9999
vn 0.9528 -0.0312 -0.3021
vn 0.8766 -0.4331 -0.2096
vn -0.0000 -0.9274 -0.3741
vn 0.9663 0.0317 -0.2554
vn 0.0053 -0.9535 -0.3014
vn 0.0039 0.0935 -0.9956
vn 0.0015 0.9947 -0.1023
vn 0.0000 0.9800 0.1988
vn 0.8315 0.5514 0.0678
vn 0.7942 0.3604 0.4892
vn -0.0000 0.6892 0.7245
vn 0.7592 -0.0755 0.6465
vn 0.1373 0.0603 0.9887
vn 0.9270 -0.0253 0.3741
vn 0.0656 -0.0671 0.9956
vn 0.0031 0.0428 0.9991
vn 0.8288 -0.0387 0.5582
vn 0.5228 0.3121 0.7933
vn 0.9980 0.0633 0.0059
vn 0.7822 0.6125 0.1144
vn 0.0057 0.8853 0.4650
vn -0.0119 0.9721 0.2344
vn 0.9910 0.1328 -0.0161
vn -0.0086 0.9838 0.1788
vn 0.7756 0.6256 -0.0843
vn -0.9937 0.1112 0.0102
vn -0.8867 0.4581 -0.0632
vn -0.8913 0.2851 0.3525
vn -0.8844 0.2285 0.4070
vn -0.8949 0.1021 0.4345
vn -0.9043 -0.0348 0.4255
vn -0.8043 0.0330 0.5933
vn -0.7848 0.4480 0.4282
vn -0.9486 -0.0141 -0.3160
vn -0.9049 0.2850 -0.3160
vn -0.9738 0.1734 -0.1469
vn -0.8639 0.2585 -0.4323
vn -0.9948 0.0181 -0.1004
vn -0.9860 0.0486 -0.1595
vn -0.7811 0.0601 -0.6215
vn -0.5321 -0.3010 -0.7914
vn -0.9632 -0.1441 0.2270
vn -0.9949 -0.0965 0.0276
vn -0.8862 -0.4633 0.0018
vn -0.9276 -0.3576 -0.1081
vn -0.6915 -0.6249 0.3624
vn -0.9935 -0.0852 0.0749
vn -0.8788 -0.4288 0.2091
vn -0.9892 -0.1452 -0.0203
vn -0.9908 -0.1104 -0.0782
vn -0.6859 -0.7068 -0.1732
vn -0.9652 -0.2158 0.1475
vn -0.8807 -0.4528 0.1389
vn -0.9029 -0.4293 -0.0214
vn -0.9193 -0.3284 -0.2171
vn -0.9024 -0.2375 -0.3596
vn -0.9047 -0.3910 -0.1691
vn -0.9111 -0.4102 0.0407
vn -0.8767 -0.4704 -0.1006
vn -0.8635 -0.4865 -0.1331
vn 0.7781 -0.3847 -0.4965
vn -0.9989 -0.0355 -0.0316
vn -0.9951 -0.0651 -0.0746
vn -0.9376 -0.2082 -0.2787
vn -0.9871 -0.0665 -0.1455
# 127 vertex normals

vt 0.5004 0.2405 0.0000
vt 0.5042 0.2218 0.0000
vt 0.5250 0.2251 0.0000
vt 0.5212 0.2432 0.0000
vt 0.5175 0.2595 0.0000
vt 0.4972 0.2559 0.0000
vt 0.9636 0.7231 0.0000
vt 0.9602 0.7478 0.0000
vt 0.8644 0.6811 0.0000
vt 0.8747 0.6588 0.0000
vt 0.6057 0.7103 0.0000
vt 0.6398 0.7019 0.0000
vt 0.6509 0.7060 0.0000
vt 0.6369 0.7258 0.0000
vt 0.6374 0.7207 0.0000
vt 0.6698 0.7200 0.0000
vt 0.6705 0.7248 0.0000
vt 0.6947 0.7124 0.0000
vt 0.6967 0.7167 0.0000
vt 0.7088 0.7087 0.0000
vt 0.7097 0.7030 0.0000
vt 0.7259 0.7187 0.0000
vt 0.7231 0.7223 0.0000
vt 0.7426 0.7298 0.0000
vt 0.7413 0.7339 0.0000
vt 0.7666 0.7335 0.0000
vt 0.7655 0.7293 0.0000
vt 0.7844 0.7196 0.0000
vt 0.7875 0.7231 0.0000
vt 0.8002 0.7036 0.0000
vt 0.7960 0.7018 0.0000
vt 0.8031 0.6901 0.0000
vt 0.8009 0.6846 0.0000
vt 0.8178 0.6938 0.0000
vt 0.8168 0.6981 0.0000
vt 0.8399 0.6973 0.0000
vt 0.8384 0.6928 0.0000
vt 0.8606 0.6779 0.0000
vt 0.8696 0.6577 0.0000
vt 0.8740 0.6446 0.0000
vt 0.8702 0.6389 0.0000
vt 0.8858 0.6437 0.0000
vt 0.8856 0.6485 0.0000
vt 0.9055 0.6393 0.0000
vt 0.9077 0.6438 0.0000
vt 0.9280 0.6259 0.0000
vt 0.9237 0.6232 0.0000
vt 0.9367 0.5969 0.0000
vt 0.9319 0.5958 0.0000
vt 0.9417 0.5655 0.0000
vt 0.9421 0.5392 0.0000
vt 0.9614 0.6005 0.0000
vt 0.9515 0.6017 0.0000
vt 0.9736 0.7226 0.0000
vt 0.9695 0.7493 0.0000
vt 0.9513 0.8237 0.0000
vt 0.9606 0.8254 0.0000
vt 0.9534 0.8523 0.0000
vt 0.9445 0.8490 0.0000
vt 0.9216 0.9453 0.0000
vt 0.9091 0.9452 0.0000
vt 0.9242 0.9549 0.0000
vt 0.9142 0.9615 0.0000
vt 0.9385 0.9769 0.0000
vt 0.9429 0.9681 0.0000
vt 0.9783 0.9887 0.0000
vt 0.9827 0.9826 0.0000
vt 0.9919 0.9921 0.0000
vt 0.9800 0.9965 0.0000
vt 0.9234 0.9909 0.0000
vt 0.9256 0.9810 0.0000
vt 0.8997 0.9718 0.0000
vt 0.8928 0.9803 0.0000
vt 0.8924 0.9608 0.0000
vt 0.8826 0.9647 0.0000
vt 0.8896 0.9429 0.0000
vt 0.8785 0.9471 0.0000
vt 0.8301 0.8693 0.0000
vt 0.8389 0.8624 0.0000
vt 0.7927 0.8304 0.0000
vt 0.8004 0.8197 0.0000
vt 0.7873 0.8135 0.0000
vt 0.7835 0.8256 0.0000
vt 0.7438 0.8217 0.0000
vt 0.7438 0.8094 0.0000
vt 0.6649 0.8283 0.0000
vt 0.6651 0.8161 0.0000
vt 0.8245 0.5301 0.0000
vt 0.9045 0.5364 0.0000
vt 0.9016 0.5474 0.0000
vt 0.8250 0.5416 0.0000
vt 0.7825 0.5364 0.0000
vt 0.7873 0.5478 0.0000
vt 0.7699 0.5430 0.0000
vt 0.7784 0.5534 0.0000
vt 0.7328 0.5884 0.0000
vt 0.7423 0.5950 0.0000
vt 0.6853 0.6705 0.0000
vt 0.6965 0.6745 0.0000
vt 0.6919 0.6927 0.0000
vt 0.6823 0.6879 0.0000
vt 0.6753 0.6983 0.0000
vt 0.6807 0.7071 0.0000
vt 0.6523 0.7149 0.0000
vt 0.6039 0.7165 0.0000
vt 0.5945 0.7120 0.0000
vt 0.6026 0.7048 0.0000
vt 0.6364 0.6948 0.0000
vt 0.6524 0.6826 0.0000
vt 0.6618 0.6885 0.0000
vt 0.6668 0.6728 0.0000
vt 0.6542 0.6732 0.0000
vt 0.6256 0.5795 0.0000
vt 0.6161 0.5831 0.0000
vt 0.6185 0.5538 0.0000
vt 0.6093 0.5554 0.0000
vt 0.5971 0.4798 0.0000
vt 0.6064 0.4784 0.0000
vt 0.5945 0.4532 0.0000
vt 0.6041 0.4537 0.0000
vt 0.6052 0.3366 0.0000
vt 0.6108 0.3374 0.0000
vt 0.6193 0.3060 0.0000
vt 0.6209 0.2881 0.0000
vt 0.6288 0.3307 0.0000
vt 0.6240 0.3320 0.0000
vt 0.6381 0.3566 0.0000
vt 0.6342 0.3594 0.0000
vt 0.6567 0.3714 0.0000
vt 0.6547 0.3759 0.0000
vt 0.6776 0.3797 0.0000
vt 0.6771 0.3745 0.0000
vt 0.6887 0.3754 0.0000
vt 0.6930 0.3702 0.0000
vt 0.6930 0.3885 0.0000
vt 0.6885 0.3896 0.0000
vt 0.6989 0.4105 0.0000
vt 0.7025 0.4072 0.0000
vt 0.7253 0.4206 0.0000
vt 0.7241 0.4251 0.0000
vt 0.7465 0.4205 0.0000
vt 0.7478 0.4250 0.0000
vt 0.7609 0.4166 0.0000
vt 0.7633 0.4111 0.0000
vt 0.7682 0.4280 0.0000
vt 0.7644 0.4298 0.0000
vt 0.7803 0.4442 0.0000
vt 0.7775 0.4477 0.0000
vt 0.7984 0.4568 0.0000
vt 0.7992 0.4526 0.0000
vt 0.8218 0.4519 0.0000
vt 0.8232 0.4560 0.0000
vt 0.8408 0.4436 0.0000
vt 0.8378 0.4401 0.0000
vt 0.8535 0.4295 0.0000
vt 0.8528 0.4245 0.0000
vt 0.8672 0.4336 0.0000
vt 0.8655 0.4377 0.0000
vt 0.8909 0.4438 0.0000
vt 0.8914 0.4392 0.0000
vt 0.9240 0.4440 0.0000
vt 0.9234 0.4389 0.0000
vt 0.6522 0.7571 0.0000
vt 0.6432 0.7440 0.0000
vt 0.6646 0.7917 0.0000
vt 0.6608 0.7737 0.0000
vt 0.9035 0.5109 0.0000
vt 0.9057 0.4915 0.0000
vt 0.9236 0.4620 0.0000
vt 0.9136 0.4756 0.0000
# 170 texture coords

o Wing_Right
g Wing_Right
usemtl Gargoyle_1
s 1
f 1/1/1 2/2/2 3/3/3 4/4/4 
f 4/4/4 5/5/5 6/6/6 1/1/1 
f 7/7/7 8/8/8 9/9/9 10/10/10 
f 11/11/11 12/12/12 13/13/13 
f 14/14/14 15/15/15 16/16/16 17/17/17 
f 17/17/17 16/16/16 18/18/18 19/19/19 
f 20/20/20 19/19/19 18/18/18 21/21/21 
f 20/20/20 21/21/21 22/22/22 23/23/23 
f 23/23/23 22/22/22 24/24/24 25/25/25 
f 26/26/26 25/25/25 24/24/24 27/27/27 
f 26/26/26 27/27/27 28/28/28 29/29/29 
f 30/30/30 29/29/29 28/28/28 31/31/31 
f 32/32/32 30/30/30 31/31/31 33/33/33 
f 32/32/32 33/33/33 34/34/34 35/35/35 
f 36/36/36 35/35/35 34/34/34 37/37/37 
f 9/9/9 36/36/36 37/37/37 38/38/38 
f 9/9/9 38/38/38 39/39/39 10/10/10 
f 40/40/40 10/10/10 39/39/39 41/41/41 
f 40/40/40 41/41/41 42/42/42 43/43/43 
f 43/43/43 42/42/42 44/44/44 45/45/45 
f 46/46/46 45/45/45 44/44/44 47/47/47 
f 48/48/48 46/46/46 47/47/47 49/49/49 
f 50/50/50 48/48/48 49/49/49 51/51/51 
f 50/50/50 51/51/51 52/52/52 53/53/53 
f 7/7/7 53/53/53 52/52/52 54/54/54 
f 8/8/8 7/7/7 54/54/54 55/55/55 
f 56/56/56 8/8/8 55/55/55 57/57/57 
f 56/56/56 57/57/57 58/58/58 59/59/59 
f 59/59/59 58/58/58 60/60/60 61/61/61 
f 61/61/61 60/60/60 62/62/62 63/63/63 
f 64/64/64 63/63/63 62/62/62 65/65/65 
f 66/66/66 64/64/64 65/65/65 67/67/67 
f 67/67/67 68/68/68 66/66/66 
f 68/68/68 69/69/69 66/66/66 
f 66/66/66 69/69/69 70/70/70 71/71/71 
f 72/72/72 71/71/71 70/70/70 73/73/73 
f 74/74/74 72/72/72 73/73/73 75/75/75 
f 76/76/76 74/74/74 75/75/75 77/77/77 
f 76/76/76 77/77/77 78/78/78 79/79/79 
f 79/79/79 78/78/78 80/80/80 81/81/81 
f 82/82/82 81/81/81 80/80/80 83/83/83 
f 82/82/82 83/83/83 84/84/84 85/85/85 
f 85/85/85 84/84/84 86/86/86 87/87/87 
f 88/88/88 89/89/89 86/90/86 84/91/84 
f 90/92/90 88/88/88 84/91/84 83/93/83 
f 91/94/91 90/92/90 83/93/83 80/95/80 
f 92/96/92 91/94/91 80/95/80 78/97/78 
f 93/98/93 92/96/92 78/97/78 77/99/77 
f 93/98/93 77/99/77 75/100/75 94/101/94 
f 95/102/95 94/101/94 75/100/75 73/103/73 
f 95/102/95 73/103/73 70/104/70 13/13/13 
f 11/11/11 13/13/13 70/104/70 69/105/69 
f 69/105/69 68/106/68 11/11/11 
f 68/106/68 67/107/67 11/11/11 
f 11/11/11 67/107/67 65/108/65 12/12/12 
f 12/12/12 65/108/65 62/109/62 96/110/96 
f 97/111/97 96/110/96 62/109/62 60/112/60 
f 98/113/98 97/111/97 60/112/60 58/114/58 
f 99/115/99 98/113/98 58/114/58 57/116/57 
f 99/115/99 57/116/57 55/117/55 100/118/100 
f 100/118/100 55/117/55 54/119/54 101/120/101 
f 101/120/101 54/119/54 52/121/52 102/122/102 
f 103/123/103 102/122/102 52/121/52 51/124/51 
f 103/123/103 51/124/51 49/125/49 104/126/104 
f 104/126/104 49/125/49 47/127/47 105/128/105 
f 105/128/105 47/127/47 44/129/44 106/130/106 
f 107/131/107 106/130/106 44/129/44 42/132/42 
f 108/133/108 107/131/107 42/132/42 41/134/41 
f 108/133/108 41/134/41 39/135/39 109/136/109 
f 110/137/110 109/136/109 39/135/39 38/138/38 
f 110/137/110 38/138/38 37/139/37 111/140/111 
f 111/140/111 37/139/37 34/141/34 112/142/112 
f 113/143/113 112/142/112 34/141/34 33/144/33 
f 113/143/113 33/144/33 31/145/31 114/146/114 
f 114/146/114 31/145/31 28/147/28 115/148/115 
f 116/149/116 115/148/115 28/147/28 27/150/27 
f 116/149/116 27/150/27 24/151/24 117/152/117 
f 118/153/118 117/152/117 24/151/24 22/154/22 
f 119/155/119 118/153/118 22/154/22 21/156/21 
f 119/155/119 21/156/21 18/157/18 120/158/120 
f 121/159/121 120/158/120 18/157/18 16/160/16 
f 122/161/122 121/159/121 16/160/16 15/162/15 
f 10/10/10 40/40/40 43/43/43 
f 79/79/79 8/8/8 56/56/56 59/59/59 
f 59/59/59 61/61/61 76/76/76 79/79/79 
f 63/63/63 72/72/72 74/74/74 76/76/76 
f 63/63/63 76/76/76 61/61/61 
f 8/8/8 79/79/79 81/81/81 9/9/9 
f 81/81/81 82/82/82 36/36/36 9/9/9 
f 85/85/85 25/25/25 26/26/26 82/82/82 
f 26/26/26 29/29/29 82/82/82 
f 29/29/29 30/30/30 35/35/35 82/82/82 
f 82/82/82 35/35/35 36/36/36 
f 30/30/30 32/32/32 35/35/35 
f 19/19/19 20/20/20 23/23/23 85/85/85 
f 23/23/23 25/25/25 85/85/85 
f 71/71/71 72/72/72 63/63/63 64/64/64 
f 66/66/66 71/71/71 64/64/64 
f 45/45/45 7/7/7 10/10/10 43/43/43 
f 45/45/45 46/46/46 7/7/7 
f 46/46/46 48/48/48 53/53/53 7/7/7 
f 48/48/48 50/50/50 53/53/53 
f 96/110/96 95/102/95 13/13/13 12/12/12 
f 96/110/96 97/111/97 93/98/93 94/101/94 
f 96/110/96 94/101/94 95/102/95 
f 91/94/91 92/96/92 100/118/100 110/137/110 
f 91/94/91 110/137/110 111/140/111 
f 102/122/102 103/123/103 104/126/104 
f 91/94/91 111/140/111 112/142/112 90/92/90 
f 90/92/90 112/142/112 114/146/114 
f 93/98/93 97/111/97 98/113/98 92/96/92 
f 98/113/98 99/115/99 100/118/100 92/96/92 
f 112/142/112 113/143/113 114/146/114 
f 115/148/115 116/149/116 90/92/90 
f 116/149/116 117/152/117 88/88/88 90/92/90 
f 117/152/117 118/153/118 88/88/88 
f 120/158/120 88/88/88 118/153/118 119/155/119 
f 114/146/114 115/148/115 90/92/90 
f 102/122/102 104/126/104 105/128/105 101/120/101 
f 105/128/105 106/130/106 101/120/101 
f 106/130/106 107/131/107 109/136/109 101/120/101 
f 101/120/101 109/136/109 110/137/110 100/118/100 
f 107/131/107 108/133/108 109/136/109 
f 3/163/3 123/164/123 14/14/14 17/17/17 
f 85/85/85 5/165/5 4/166/4 
f 19/19/19 85/85/85 4/166/4 
f 17/17/17 19/19/19 4/166/4 3/163/3 
f 5/165/5 85/85/85 87/87/87 
f 124/167/124 89/89/89 88/88/88 
f 125/168/125 124/167/124 88/88/88 
f 122/161/122 126/169/126 127/170/127 121/159/121 
f 121/159/121 127/170/127 125/168/125 
f 125/168/125 88/88/88 121/159/121 
f 121/159/121 88/88/88 120/158/120 
# 102 polygons - 32 triangles

