# 3ds Max Wavefront OBJ Exporter v0.97b - (c)2007 guruware
# File Created: 24.11.2019 17:32:06

mtllib AlaIzq.mtl

#
# object Wing_Left
#

v  3.0032 48.5010 -41.9771
v  3.0790 42.7667 -36.4669
v  3.0684 43.7866 -34.0251
v  2.8378 53.8885 -41.4955
v  4.0689 73.8376 -25.7474
v  3.9646 74.3520 -28.8089
v  4.1101 74.0920 -25.0447
v  3.0879 41.6070 -12.8327
v  3.5112 41.3095 -12.8865
v  3.4735 40.1842 -9.5412
v  2.9880 40.4540 -9.4049
v  3.1323 41.7039 -15.7113
v  3.5112 41.4026 -15.6535
v  3.1279 41.0514 -17.1998
v  3.5112 40.6535 -17.3622
v  3.1541 42.6988 -17.8623
v  3.5112 42.5455 -18.1231
v  3.1595 44.5121 -19.3297
v  3.5112 44.2508 -19.5030
v  3.1363 45.2812 -21.9971
v  3.5112 44.9766 -22.0204
v  3.0955 44.9490 -24.5851
v  3.5112 44.6629 -24.4643
v  3.0904 43.3806 -26.5599
v  3.5112 43.1867 -26.3230
v  3.0960 41.7711 -27.3819
v  3.5055 42.0308 -27.4146
v  3.0698 44.2993 -27.7708
v  3.5112 43.1562 -28.7846
v  3.0434 45.5735 -29.6180
v  3.5112 44.0988 -30.9795
v  3.5112 43.5133 -33.8673
v  3.5112 41.6649 -35.5001
v  3.1276 40.5022 -36.1942
v  3.5091 40.2225 -36.0944
v  3.0317 41.3096 -37.3383
v  3.5112 40.8272 -37.2891
v  3.0508 41.3883 -39.6545
v  3.5112 41.0818 -39.6043
v  3.1323 41.2964 -42.2700
v  3.5112 39.9067 -42.1392
v  3.1861 37.7955 -44.0272
v  3.5113 37.1141 -43.7878
v  3.2743 35.3185 -45.0968
v  3.5191 34.9482 -44.8595
v  3.1580 39.5139 -44.9494
v  3.4917 39.7259 -45.0273
v  3.5008 50.1330 -43.1991
v  3.5306 55.1677 -41.1071
v  2.8947 61.1032 -36.7489
v  3.4759 61.5232 -37.2180
v  2.8740 64.6914 -32.2784
v  3.5066 65.5159 -33.5557
v  2.7388 70.7548 -25.9068
v  3.5051 70.9425 -26.4002
v  2.8544 72.8563 -24.2883
v  3.5112 72.7150 -24.6142
v  2.9534 73.8376 -25.7474
v  3.5112 73.5540 -25.8617
v  3.0576 74.3523 -28.7867
v  3.5112 74.0864 -28.8784
v  3.5112 74.4332 -29.6178
v  3.5112 74.6314 -28.8597
v  2.9122 74.0920 -25.0447
v  3.5112 74.3880 -24.9846
v  2.7852 73.4297 -23.1570
v  3.5112 73.6613 -22.9135
v  2.9536 72.3529 -22.9825
v  3.5112 72.3538 -22.5268
v  2.8084 70.2946 -23.5913
v  3.5329 69.5247 -22.9698
v  2.4381 60.4702 -23.5871
v  3.5060 61.3328 -23.0929
v  2.6134 53.9756 -24.3061
v  3.5109 55.7257 -22.0964
v  2.3355 53.9127 -21.3646
v  3.4972 54.1274 -20.6397
v  2.4940 50.6700 -16.4538
v  3.5067 52.9305 -16.4561
v  2.1618 51.1465 -9.8605
v  3.4645 51.8036 -10.2542
v  4.5124 50.5449 -16.3565
v  4.6634 51.1724 -9.6916
v  4.6868 53.9127 -21.3646
v  4.7897 54.8451 -22.1644
v  4.5843 60.4702 -23.5871
v  4.3293 69.7128 -23.5123
v  4.2679 72.3615 -22.8411
v  4.2372 73.4297 -23.1570
v  4.1679 72.8563 -24.2883
v  4.2834 70.6805 -25.8344
v  4.1486 64.6907 -32.2847
v  4.2511 61.1223 -36.8056
v  4.1276 54.2866 -38.4739
v  4.0187 48.4835 -41.9738
v  3.8890 39.5199 -44.9323
v  3.7085 35.4970 -44.9945
v  3.8362 37.7954 -44.0272
v  3.8900 41.2964 -42.2700
v  3.9716 41.3883 -39.6545
v  3.9124 41.3124 -37.3321
v  3.9640 40.4003 -36.1749
v  4.1465 42.7381 -36.4499
v  3.9540 43.7866 -34.0251
v  3.9887 45.6627 -29.7433
v  4.0790 44.4679 -27.7013
v  3.9303 42.2540 -27.4032
v  3.9319 43.3806 -26.5599
v  3.9269 44.9490 -24.5851
v  3.8861 45.2812 -21.9971
v  3.8628 44.5121 -19.3297
v  3.8683 42.6988 -17.8623
v  3.7912 41.0514 -17.1998
v  3.8901 41.7039 -15.7113
v  3.9344 41.6070 -12.8327
v  3.9154 40.6354 -9.4034
v  2.0241 43.7739 -10.4668
v  2.0758 42.0803 -9.2356
v  1.8761 48.9620 -11.0174
v  2.0571 46.3705 -11.5663
v  4.6638 48.9851 -9.8283
v  4.4608 46.3433 -10.3977
v  4.5592 43.7810 -9.5875
v  4.4095 41.9385 -8.7146
# 124 vertices

vn -0.9883 0.0148 -0.1520
vn -0.9950 -0.0531 0.0848
vn -0.8818 -0.4394 0.1714
vn -0.5692 0.1321 -0.8115
vn 0.8767 -0.4333 -0.2092
vn 0.9642 0.0277 -0.2638
vn 0.8315 0.5514 0.0677
vn -0.7925 -0.5997 -0.1110
vn 0.0021 -0.9840 -0.1781
vn 0.1037 -0.9431 -0.3161
vn -0.7124 -0.6587 -0.2423
vn -0.9016 -0.4293 0.0531
vn 0.0000 -0.9820 0.1886
vn -0.8739 -0.4483 -0.1883
vn 0.0574 -0.9243 -0.3774
vn -0.8853 -0.2196 -0.4099
vn -0.0000 -0.5067 -0.8621
vn -0.9189 -0.3290 -0.2180
vn 0.0000 -0.8334 -0.5527
vn -0.9029 -0.4293 -0.0214
vn 0.0000 -0.9971 -0.0764
vn -0.8916 -0.4092 0.1940
vn -0.0000 -0.9213 0.3889
vn -0.9126 -0.2594 0.3161
vn 0.0006 -0.7394 0.6733
vn -0.3414 -0.9356 -0.0905
vn 0.5094 -0.8598 0.0366
vn -0.9908 -0.0951 -0.0964
vn -0.0208 -0.8621 -0.5063
vn -0.9874 -0.1580 -0.0047
vn 0.0109 -0.9989 0.0465
vn 0.0000 -0.8660 0.5000
vn -0.0746 -0.4988 0.8635
vn -0.7615 -0.4951 0.4184
vn -0.1058 -0.9306 0.3504
vn -0.9490 -0.3089 -0.0633
vn 0.0516 -0.9463 -0.3191
vn -0.8833 -0.4685 -0.0153
vn 0.0000 -0.9869 0.1616
vn -0.9949 -0.0965 0.0276
vn -0.0000 -0.6289 0.7775
vn -0.9635 -0.1363 0.2304
vn -0.0024 -0.4622 0.8868
vn -0.4651 -0.4911 -0.7365
vn 0.0806 -0.9967 -0.0077
vn -0.7801 0.0666 -0.6222
vn -0.0045 0.1012 -0.9949
vn -0.0082 0.3181 -0.9480
vn 0.4444 0.4377 -0.7816
vn -0.9127 0.2762 -0.3012
vn -0.0933 0.6023 -0.7928
vn -0.9756 0.1585 -0.1518
vn -0.0008 0.7308 -0.6826
vn -0.8970 0.2977 -0.3267
vn 0.0436 0.7617 -0.6464
vn -0.9528 -0.0312 -0.3021
vn 0.0004 0.0135 -0.9999
vn -0.8766 -0.4331 -0.2096
vn 0.0000 -0.9274 -0.3741
vn -0.9663 0.0317 -0.2554
vn -0.0053 -0.9535 -0.3014
vn -0.0039 0.0935 -0.9956
vn -0.0015 0.9947 -0.1023
vn -0.8315 0.5514 0.0678
vn -0.0000 0.9800 0.1988
vn -0.7942 0.3604 0.4892
vn 0.0000 0.6892 0.7245
vn -0.7593 -0.0756 0.6464
vn -0.1372 0.0603 0.9887
vn -0.9271 -0.0254 0.3739
vn -0.0660 -0.0671 0.9956
vn -0.8288 -0.0387 0.5582
vn -0.0031 0.0429 0.9991
vn -0.9980 0.0633 0.0059
vn -0.5228 0.3121 0.7933
vn -0.7821 0.6125 0.1144
vn -0.0056 0.8853 0.4650
vn -0.9910 0.1329 -0.0160
vn 0.0120 0.9721 0.2344
vn -0.7756 0.6255 -0.0843
vn 0.0086 0.9838 0.1788
vn 0.9937 0.1112 0.0102
vn 0.8867 0.4580 -0.0632
vn 0.8913 0.2852 0.3525
vn 0.8844 0.2285 0.4070
vn 0.8949 0.1021 0.4345
vn 0.9043 -0.0349 0.4254
vn 0.8043 0.0330 0.5933
vn 0.7848 0.4480 0.4282
vn 0.9487 -0.0142 -0.3160
vn 0.9047 0.2853 -0.3163
vn 0.9738 0.1735 -0.1469
vn 0.8639 0.2585 -0.4323
vn 0.9948 0.0181 -0.1004
vn 0.9860 0.0487 -0.1595
vn 0.7809 0.0599 -0.6218
vn 0.5355 -0.2977 -0.7903
vn 0.9632 -0.1441 0.2270
vn 0.9949 -0.0965 0.0276
vn 0.8862 -0.4633 0.0018
vn 0.9276 -0.3575 -0.1082
vn 0.6846 -0.6325 0.3623
vn 0.9935 -0.0852 0.0749
vn 0.8788 -0.4288 0.2091
vn 0.9892 -0.1452 -0.0203
vn 0.9900 -0.1106 -0.0870
vn 0.7031 -0.6716 -0.2336
vn 0.8812 -0.3327 0.3358
vn 0.8916 -0.4092 0.1940
vn 0.9029 -0.4293 -0.0214
vn 0.9193 -0.3284 -0.2171
vn 0.9024 -0.2375 -0.3596
vn 0.9047 -0.3909 -0.1691
vn 0.9111 -0.4102 0.0407
vn 0.8767 -0.4704 -0.1006
vn 0.8635 -0.4865 -0.1331
vn -0.9465 -0.1570 -0.2818
vn -0.7781 -0.3847 -0.4965
vn -0.9937 0.0621 -0.0934
vn -0.9853 -0.0661 -0.1575
vn 0.9989 -0.0355 -0.0316
vn 0.9951 -0.0651 -0.0746
vn 0.9871 -0.0665 -0.1455
vn 0.9375 -0.2082 -0.2787
# 124 vertex normals

vt 0.2337 0.5427 0.0000
vt 0.3128 0.4667 0.0000
vt 0.3261 0.4875 0.0000
vt 0.2404 0.5667 0.0000
vt 0.3155 0.4193 0.0000
vt 0.3487 0.4308 0.0000
vt 0.3040 0.4224 0.0000
vt 0.5242 0.5041 0.0000
vt 0.5243 0.4992 0.0000
vt 0.5537 0.4964 0.0000
vt 0.5546 0.5015 0.0000
vt 0.4971 0.4996 0.0000
vt 0.4985 0.4951 0.0000
vt 0.4841 0.4935 0.0000
vt 0.4824 0.4879 0.0000
vt 0.4718 0.5089 0.0000
vt 0.4685 0.5057 0.0000
vt 0.4553 0.5229 0.0000
vt 0.4535 0.5189 0.0000
vt 0.4302 0.5259 0.0000
vt 0.4307 0.5216 0.0000
vt 0.4081 0.5185 0.0000
vt 0.4107 0.5146 0.0000
vt 0.3928 0.5009 0.0000
vt 0.3968 0.4986 0.0000
vt 0.3881 0.4880 0.0000
vt 0.3895 0.4822 0.0000
vt 0.3756 0.4977 0.0000
vt 0.3741 0.4937 0.0000
vt 0.3526 0.5001 0.0000
vt 0.3535 0.4955 0.0000
vt 0.3294 0.4837 0.0000
vt 0.3177 0.4650 0.0000
vt 0.3116 0.4527 0.0000
vt 0.3146 0.4465 0.0000
vt 0.3006 0.4581 0.0000
vt 0.2997 0.4533 0.0000
vt 0.2781 0.4564 0.0000
vt 0.2797 0.4517 0.0000
vt 0.2556 0.4415 0.0000
vt 0.2594 0.4382 0.0000
vt 0.2430 0.4140 0.0000
vt 0.2475 0.4122 0.0000
vt 0.2337 0.3836 0.0000
vt 0.2296 0.3576 0.0000
vt 0.2290 0.4208 0.0000
vt 0.2190 0.4209 0.0000
vt 0.2237 0.5436 0.0000
vt 0.2314 0.5694 0.0000
vt 0.2596 0.6407 0.0000
vt 0.2506 0.6436 0.0000
vt 0.2699 0.6648 0.0000
vt 0.2614 0.6693 0.0000
vt 0.3182 0.7552 0.0000
vt 0.3058 0.7570 0.0000
vt 0.3154 0.7720 0.0000
vt 0.3045 0.7669 0.0000
vt 0.2934 0.7907 0.0000
vt 0.2877 0.7826 0.0000
vt 0.2555 0.8078 0.0000
vt 0.2503 0.8024 0.0000
vt 0.2425 0.8130 0.0000
vt 0.2549 0.8157 0.0000
vt 0.3067 0.7930 0.0000
vt 0.3102 0.8024 0.0000
vt 0.3311 0.7803 0.0000
vt 0.3391 0.7878 0.0000
vt 0.3368 0.7684 0.0000
vt 0.3471 0.7710 0.0000
vt 0.3371 0.7502 0.0000
vt 0.3487 0.7529 0.0000
vt 0.3762 0.6635 0.0000
vt 0.3860 0.6692 0.0000
vt 0.4085 0.6159 0.0000
vt 0.4177 0.6255 0.0000
vt 0.4207 0.6081 0.0000
vt 0.4261 0.6195 0.0000
vt 0.4632 0.5980 0.0000
vt 0.4649 0.6102 0.0000
vt 0.5422 0.5939 0.0000
vt 0.5440 0.6059 0.0000
vt 0.1472 0.2314 0.0000
vt 0.1457 0.2429 0.0000
vt 0.0689 0.2416 0.0000
vt 0.0670 0.2304 0.0000
vt 0.1885 0.2415 0.0000
vt 0.1827 0.2524 0.0000
vt 0.2004 0.2493 0.0000
vt 0.1910 0.2588 0.0000
vt 0.2332 0.2978 0.0000
vt 0.2231 0.3036 0.0000
vt 0.2730 0.3839 0.0000
vt 0.2615 0.3869 0.0000
vt 0.2745 0.4015 0.0000
vt 0.2644 0.4055 0.0000
vt 0.2805 0.4126 0.0000
vt 0.2743 0.4207 0.0000
vt 0.3019 0.4312 0.0000
vt 0.3499 0.4372 0.0000
vt 0.3597 0.4335 0.0000
vt 0.3522 0.4256 0.0000
vt 0.3196 0.4126 0.0000
vt 0.2948 0.4040 0.0000
vt 0.3047 0.3990 0.0000
vt 0.2912 0.3879 0.0000
vt 0.3037 0.3895 0.0000
vt 0.3408 0.2987 0.0000
vt 0.3499 0.3032 0.0000
vt 0.3502 0.2738 0.0000
vt 0.3592 0.2763 0.0000
vt 0.3691 0.1998 0.0000
vt 0.3783 0.2020 0.0000
vt 0.3737 0.1754 0.0000
vt 0.3833 0.1758 0.0000
vt 0.3776 0.0590 0.0000
vt 0.3833 0.0587 0.0000
vt 0.3720 0.0270 0.0000
vt 0.3720 0.0089 0.0000
vt 0.3649 0.0524 0.0000
vt 0.3603 0.0507 0.0000
vt 0.3523 0.0788 0.0000
vt 0.3487 0.0757 0.0000
vt 0.3303 0.0933 0.0000
vt 0.3288 0.0886 0.0000
vt 0.3073 0.0950 0.0000
vt 0.3082 0.0899 0.0000
vt 0.2966 0.0898 0.0000
vt 0.2928 0.0842 0.0000
vt 0.2955 0.1039 0.0000
vt 0.2911 0.1024 0.0000
vt 0.2832 0.1238 0.0000
vt 0.2799 0.1201 0.0000
vt 0.2568 0.1360 0.0000
vt 0.2559 0.1314 0.0000
vt 0.2332 0.1338 0.0000
vt 0.2349 0.1294 0.0000
vt 0.2209 0.1242 0.0000
vt 0.2190 0.1185 0.0000
vt 0.2162 0.1370 0.0000
vt 0.2126 0.1348 0.0000
vt 0.2015 0.1536 0.0000
vt 0.1990 0.1499 0.0000
vt 0.1799 0.1607 0.0000
vt 0.1795 0.1566 0.0000
vt 0.1553 0.1577 0.0000
vt 0.1570 0.1538 0.0000
vt 0.1389 0.1438 0.0000
vt 0.1422 0.1406 0.0000
vt 0.1275 0.1286 0.0000
vt 0.1287 0.1236 0.0000
vt 0.1148 0.1356 0.0000
vt 0.1135 0.1314 0.0000
vt 0.0890 0.1394 0.0000
vt 0.0889 0.1348 0.0000
vt 0.0560 0.1366 0.0000
vt 0.0570 0.1315 0.0000
vt 0.5468 0.5336 0.0000
vt 0.5524 0.5200 0.0000
vt 0.5392 0.5696 0.0000
vt 0.5405 0.5512 0.0000
vt 0.0703 0.2051 0.0000
vt 0.0699 0.1855 0.0000
vt 0.0635 0.1690 0.0000
vt 0.0548 0.1545 0.0000
# 164 texture coords

o Wing_Left
g Wing_Left
usemtl Gargoyle_1
s 1
f 1/1/1 2/2/2 3/3/3 4/4/4 
f 5/5/5 6/6/6 7/7/7 
f 8/8/8 9/9/9 10/10/10 11/11/11 
f 8/8/8 12/12/12 13/13/13 9/9/9 
f 14/14/14 15/15/15 13/13/13 12/12/12 
f 14/14/14 16/16/16 17/17/17 15/15/15 
f 16/16/16 18/18/18 19/19/19 17/17/17 
f 20/20/20 21/21/21 19/19/19 18/18/18 
f 20/20/20 22/22/22 23/23/23 21/21/21 
f 24/24/24 25/25/25 23/23/23 22/22/22 
f 24/24/24 26/26/26 27/27/27 25/25/25 
f 26/26/26 28/28/28 29/29/29 27/27/27 
f 30/30/30 31/31/31 29/29/29 28/28/28 
f 3/3/3 32/32/32 31/31/31 30/30/30 
f 3/3/3 2/2/2 33/33/33 32/32/32 
f 34/34/34 35/35/35 33/33/33 2/2/2 
f 34/34/34 36/36/36 37/37/37 35/35/35 
f 36/36/36 38/38/38 39/39/39 37/37/37 
f 40/40/40 41/41/41 39/39/39 38/38/38 
f 42/42/42 43/43/43 41/41/41 40/40/40 
f 44/44/44 45/45/45 43/43/43 42/42/42 
f 44/44/44 46/46/46 47/47/47 45/45/45 
f 1/1/1 48/48/48 47/47/47 46/46/46 
f 4/4/4 49/49/49 48/48/48 1/1/1 
f 50/50/50 51/51/51 49/49/49 4/4/4 
f 50/50/50 52/52/52 53/53/53 51/51/51 
f 52/52/52 54/54/54 55/55/55 53/53/53 
f 54/54/54 56/56/56 57/57/57 55/55/55 
f 58/58/58 59/59/59 57/57/57 56/56/56 
f 60/60/60 61/61/61 59/59/59 58/58/58 
f 62/62/62 61/61/61 60/60/60 
f 63/63/63 62/62/62 60/60/60 
f 60/60/60 64/64/64 65/65/65 63/63/63 
f 66/66/66 67/67/67 65/65/65 64/64/64 
f 68/68/68 69/69/69 67/67/67 66/66/66 
f 70/70/70 71/71/71 69/69/69 68/68/68 
f 70/70/70 72/72/72 73/73/73 71/71/71 
f 72/72/72 74/74/74 75/75/75 73/73/73 
f 76/76/76 77/77/77 75/75/75 74/74/74 
f 76/76/76 78/78/78 79/79/79 77/77/77 
f 78/78/78 80/80/80 81/81/81 79/79/79 
f 82/82/82 79/83/79 81/84/81 83/85/83 
f 84/86/84 77/87/77 79/83/79 82/82/82 
f 85/88/85 75/89/75 77/87/77 84/86/84 
f 86/90/86 73/91/73 75/89/75 85/88/85 
f 87/92/87 71/93/71 73/91/73 86/90/86 
f 88/94/88 69/95/69 71/93/71 87/92/87 
f 89/96/89 67/97/67 69/95/69 88/94/88 
f 89/96/89 7/7/7 65/98/65 67/97/67 
f 6/6/6 63/99/63 65/98/65 7/7/7 
f 62/100/62 63/99/63 6/6/6 
f 61/101/61 62/100/62 6/6/6 
f 6/6/6 5/5/5 59/102/59 61/101/61 
f 5/5/5 90/103/90 57/104/57 59/102/59 
f 91/105/91 55/106/55 57/104/57 90/103/90 
f 92/107/92 53/108/53 55/106/55 91/105/91 
f 93/109/93 51/110/51 53/108/53 92/107/92 
f 94/111/94 49/112/49 51/110/51 93/109/93 
f 94/111/94 95/113/95 48/114/48 49/112/49 
f 95/113/95 96/115/96 47/116/47 48/114/48 
f 97/117/97 45/118/45 47/116/47 96/115/96 
f 97/117/97 98/119/98 43/120/43 45/118/45 
f 98/119/98 99/121/99 41/122/41 43/120/43 
f 99/121/99 100/123/100 39/124/39 41/122/41 
f 101/125/101 37/126/37 39/124/39 100/123/100 
f 102/127/102 35/128/35 37/126/37 101/125/101 
f 102/127/102 103/129/103 33/130/33 35/128/35 
f 104/131/104 32/132/32 33/130/33 103/129/103 
f 104/131/104 105/133/105 31/134/31 32/132/32 
f 105/133/105 106/135/106 29/136/29 31/134/31 
f 107/137/107 27/138/27 29/136/29 106/135/106 
f 107/137/107 108/139/108 25/140/25 27/138/27 
f 108/139/108 109/141/109 23/142/23 25/140/25 
f 110/143/110 21/144/21 23/142/23 109/141/109 
f 110/143/110 111/145/111 19/146/19 21/144/21 
f 112/147/112 17/148/17 19/146/19 111/145/111 
f 113/149/113 15/150/15 17/148/17 112/147/112 
f 113/149/113 114/151/114 13/152/13 15/150/15 
f 115/153/115 9/154/9 13/152/13 114/151/114 
f 116/155/116 10/156/10 9/154/9 115/153/115 
f 34/34/34 2/2/2 36/36/36 
f 72/72/72 52/52/52 50/50/50 4/4/4 
f 52/52/52 72/72/72 70/70/70 54/54/54 
f 56/56/56 70/70/70 68/68/68 66/66/66 
f 70/70/70 56/56/56 54/54/54 
f 4/4/4 3/3/3 74/74/74 72/72/72 
f 74/74/74 3/3/3 30/30/30 76/76/76 
f 78/78/78 76/76/76 20/20/20 18/18/18 
f 22/22/22 20/20/20 76/76/76 
f 22/22/22 76/76/76 28/28/28 24/24/24 
f 28/28/28 76/76/76 30/30/30 
f 26/26/26 24/24/24 28/28/28 
f 12/12/12 78/78/78 16/16/16 14/14/14 
f 18/18/18 16/16/16 78/78/78 
f 64/64/64 58/58/58 56/56/56 66/66/66 
f 64/64/64 60/60/60 58/58/58 
f 38/38/38 36/36/36 2/2/2 1/1/1 
f 40/40/40 38/38/38 1/1/1 
f 40/40/40 1/1/1 46/46/46 42/42/42 
f 44/44/44 42/42/42 46/46/46 
f 90/103/90 5/5/5 7/7/7 89/96/89 
f 90/103/90 88/94/88 87/92/87 91/105/91 
f 88/94/88 90/103/90 89/96/89 
f 85/88/85 104/131/104 94/111/94 86/90/86 
f 104/131/104 85/88/85 105/133/105 
f 97/117/97 96/115/96 98/119/98 
f 84/86/84 106/135/106 105/133/105 85/88/85 
f 106/135/106 84/86/84 108/139/108 
f 87/92/87 86/90/86 92/107/92 91/105/91 
f 92/107/92 86/90/86 94/111/94 93/109/93 
f 107/137/107 106/135/106 108/139/108 
f 110/143/110 109/141/109 84/86/84 
f 110/143/110 84/86/84 82/82/82 111/145/111 
f 112/147/112 111/145/111 82/82/82 
f 114/151/114 113/149/113 112/147/112 82/82/82 
f 109/141/109 108/139/108 84/86/84 
f 96/115/96 95/113/95 99/121/99 98/119/98 
f 100/123/100 99/121/99 95/113/95 
f 100/123/100 95/113/95 103/129/103 101/125/101 
f 95/113/95 94/111/94 104/131/104 103/129/103 
f 102/127/102 101/125/101 103/129/103 
f 117/157/117 8/8/8 11/11/11 118/158/118 
f 119/159/119 78/78/78 120/160/120 
f 78/78/78 12/12/12 120/160/120 
f 8/8/8 117/157/117 120/160/120 12/12/12 
f 78/78/78 119/159/119 80/80/80 
f 83/85/83 121/161/121 82/82/82 
f 121/161/121 122/162/122 82/82/82 
f 116/155/116 115/153/115 123/163/123 124/164/124 
f 123/163/123 115/153/115 122/162/122 
f 82/82/82 122/162/122 115/153/115 
f 82/82/82 115/153/115 114/151/114 
# 100 polygons - 32 triangles

