# 3ds Max Wavefront OBJ Exporter v0.97b - (c)2007 guruware
# File Created: 23.11.2019 14:06:51

mtllib paperplane.mtl

#
# object Line001
#

v  -35.7671 22.2329 -0.0406
v  -17.5326 27.0963 -0.0162
v  -11.9387 22.1483 40.8521
v  -11.9367 13.3436 0.0574
v  -5.8872 26.9084 -0.0162
v  11.4292 21.2300 -0.0418
v  -11.9328 22.4202 40.8686
v  -17.4277 27.3473 0.0000
v  -35.8358 22.4934 0.0000
v  -11.9328 13.6100 0.0000
v  -5.9799 27.1641 0.0000
v  11.5123 21.4860 0.0000
# 12 vertices

vn -0.5683 -0.6535 -0.5000
vn -0.1389 -0.3701 -0.9186
vn -0.0093 -0.5874 0.8093
vn -0.0136 -0.9122 -0.4096
vn 0.1183 -0.3711 -0.9210
vn 0.5293 -0.6813 -0.5056
vn 0.0145 0.5167 0.8560
vn 0.3251 0.7732 -0.5444
vn -0.8496 0.4086 -0.3334
vn -0.0021 0.0093 -1.0000
vn -0.2880 0.7887 -0.5431
vn 0.8698 0.3633 -0.3339
# 12 vertex normals

vt 0.0000 0.0000 0.0000
vt 0.2840 0.0000 0.0000
vt 0.5029 1.0000 0.0000
vt 0.5048 0.0000 0.0000
vt 0.7256 0.0000 0.0000
vt 1.0000 0.0000 0.0000
# 6 texture coords

o Line001
g Line001
usemtl wire_255255255
s 1
f 1/1/1 2/2/2 3/3/3 
s 4
f 2/2/2 4/4/4 3/3/3 
s 2
f 4/4/4 5/5/5 3/3/3 
s 4
f 5/5/5 6/6/6 3/3/3 
s 1
f 7/3/7 8/2/8 9/1/9 
s 4
f 7/3/7 10/4/10 8/2/8 
s 2
f 7/3/7 11/5/11 10/4/10 
s 4
f 7/3/7 12/6/12 11/5/11 
s 2
f 2/2/2 1/1/1 9/1/9 8/2/8 
s 4
f 1/1/1 3/3/3 7/3/7 9/1/9 
s 2
f 4/4/4 2/2/2 8/2/8 10/4/10 
s 1
f 5/5/5 4/4/4 10/4/10 11/5/11 
f 6/6/6 5/5/5 11/5/11 12/6/12 
s 2
f 3/3/3 6/6/6 12/6/12 7/3/7 
# 6 polygons - 8 triangles

