# 3ds Max Wavefront OBJ Exporter v0.97b - (c)2007 guruware
# File Created: 03.11.2019 16:21:48

mtllib minisplit.mtl

#
# object Cylinder001
#

v  -39.34605 21.62545 0.16964
v  -45.88743 21.62545 0.16964
v  -46.13005 17.11943 0.34187
v  -39.58867 17.10911 0.70728
v  -46.13005 10.13881 0.31836
v  -39.58867 10.16921 -0.04600
v  -46.13005 7.18611 -3.20054
v  -39.58866 7.18611 -3.20054
v  -46.13005 5.61501 -16.31070
v  -39.58866 5.61501 -16.31070
v  -46.13005 30.09545 -15.84493
v  -39.58867 30.09545 -15.84493
v  -46.13005 30.14520 -5.29626
v  -39.58867 30.14520 -5.29626
v  -45.88744 26.21189 -0.08673
v  -39.34605 26.21189 -0.08673
v  -16.30482 17.10911 0.70728
v  -16.06219 21.62545 0.16964
v  -30.97482 21.62545 0.16965
v  -31.21744 17.10911 0.70729
v  -16.30481 7.18611 -3.20053
v  -16.30481 10.16921 -0.04599
v  -31.21743 10.16921 -0.04599
v  -31.21743 7.18611 -3.20053
v  -16.30481 5.61501 -16.31070
v  -31.21743 5.61501 -16.31070
v  -16.30481 30.09545 -15.84493
v  -31.21743 30.09545 -15.84493
v  -16.30482 30.14520 -5.29626
v  -31.21743 30.14520 -5.29626
v  -16.06219 26.21189 -0.08672
v  -30.97482 26.21189 -0.08672
v  -1.39219 17.10911 0.70729
v  -2.06318 21.62545 0.16964
v  -1.39219 7.18611 -3.20053
v  -1.39219 10.16921 -0.04599
v  -1.39219 5.61501 -16.31069
v  -1.39219 30.09545 -15.84492
v  -1.39219 30.14520 -5.29625
v  -2.06318 26.21189 -0.08672
v  12.60683 17.04219 1.34376
v  12.84944 21.54967 0.80512
v  13.52043 7.18611 -3.20053
v  13.52043 10.16921 -0.04599
v  13.52043 5.61501 -16.31069
v  13.52043 30.09545 -15.84492
v  12.60683 30.14521 -5.29625
v  12.84944 26.21189 -0.08672
v  21.12775 21.54967 0.80512
v  20.88512 17.04219 1.34376
v  21.79872 10.16921 -0.04599
v  21.79872 7.18611 -3.20053
v  21.79872 5.61501 -16.31069
v  21.79872 30.09545 -15.84492
v  20.88512 30.14520 -5.29625
v  21.12775 26.21189 -0.08672
v  28.43305 30.09545 -15.84492
v  27.51945 30.14520 -5.29625
v  27.76208 26.21189 -0.08671
v  27.76208 21.54967 0.80513
v  27.51945 17.11943 0.98187
v  28.43305 10.13881 0.31837
v  28.43305 7.18611 -3.20053
v  28.43305 5.61501 -16.31069
v  -16.29619 11.10964 5.15480
v  -16.29619 16.01145 0.18471
v  -31.20882 16.01146 0.18471
v  -31.20880 11.10964 5.15480
v  -1.38357 11.10964 5.15480
v  -1.38356 16.01146 0.18471
v  13.52905 11.10964 5.15480
v  12.61545 16.46862 0.63257
v  20.89375 16.46862 0.63257
v  21.80734 11.10964 5.15481
v  -39.58005 16.01145 0.18471
v  -39.58005 11.10964 5.15480
# 76 vertices

vn -0.01093 0.08808 0.99605
vn -0.00000 0.04686 0.99890
vn -0.03894 0.03301 0.99870
vn -0.01979 0.06209 0.99787
vn 0.02242 -0.44386 0.89582
vn 0.02502 -0.55875 0.82896
vn 0.01292 -0.91312 0.40749
vn -0.00000 -0.90544 0.42447
vn 0.00000 -0.74165 -0.67079
vn 0.00000 0.71215 -0.70203
vn -0.00000 0.95019 0.31167
vn -0.00000 0.94892 0.31551
vn -0.00000 0.47537 0.87979
vn -0.00000 0.59983 0.80013
vn -0.00000 0.11821 0.99299
vn -0.00000 0.08705 0.99620
vn -0.00000 0.09745 0.99524
vn -0.00000 -0.72657 0.68709
vn 0.00000 0.94892 0.31551
vn 0.00000 0.47059 0.88235
vn 0.00000 0.59983 0.80013
vn -0.02445 0.11459 0.99311
vn -0.02053 0.08591 0.99609
vn -0.00935 0.47636 0.87920
vn -0.02175 0.11889 0.99267
vn -0.01214 0.14755 0.98898
vn -0.00000 0.52826 0.84908
vn 0.00857 0.14537 0.98934
vn 0.03529 0.02017 0.99917
vn -0.00591 -0.55817 0.82971
vn 0.98148 0.17205 0.08419
vn 0.93838 -0.06493 -0.33945
vn 0.98320 0.13983 -0.11733
vn 0.97658 -0.00077 0.21516
vn 0.99842 0.02716 0.04920
vn 1.00000 0.00000 0.00000
vn -1.00000 0.00000 -0.00000
vn -0.31141 0.05303 0.94879
vn -0.99755 0.02351 -0.06592
vn -0.99813 -0.06119 0.00029
vn -0.99979 0.00983 0.01782
vn -1.00000 -0.00000 -0.00000
vn 0.01126 -0.04193 0.99906
vn -0.00000 0.11550 0.99331
vn -0.05034 -0.47854 0.87662
vn -0.01283 -0.91317 0.40738
vn 0.00000 0.69250 -0.72142
vn 0.00000 0.95052 0.31067
vn -0.00000 0.52434 0.85151
vn -0.00000 0.71198 0.70220
vn -0.00637 0.70235 0.71180
vn -0.01454 0.65309 0.75714
vn -0.02457 0.64228 0.76608
vn -0.00000 0.64492 0.76425
# 54 vertex normals

vt 0.75000 0.08773 1.00000
vt 0.75000 0.00000 1.00000
vt 0.69444 0.00000 1.00000
vt 0.69444 0.08773 1.00000
vt 0.63889 0.00000 1.00000
vt 0.63889 0.08773 1.00000
vt 0.58333 0.00000 1.00000
vt 0.58333 0.08773 1.00000
vt 0.52778 0.00000 1.00000
vt 0.52778 0.08773 1.00000
vt 0.97222 0.08773 1.00000
vt 0.97222 0.00000 1.00000
vt 0.91667 0.00000 1.00000
vt 0.91667 0.08773 1.00000
vt 0.86111 0.00000 1.00000
vt 0.86111 0.08773 1.00000
vt 0.80556 0.00000 1.00000
vt 0.80556 0.08773 1.00000
vt 0.69444 0.40000 1.00000
vt 0.75000 0.40000 1.00000
vt 0.75000 0.20000 1.00000
vt 0.69444 0.20000 1.00000
vt 0.58333 0.40000 1.00000
vt 0.63889 0.40000 1.00000
vt 0.63889 0.20000 1.00000
vt 0.58333 0.20000 1.00000
vt 0.52778 0.40000 1.00000
vt 0.52778 0.20000 1.00000
vt 0.91667 0.40000 1.00000
vt 0.97222 0.40000 1.00000
vt 0.97222 0.20000 1.00000
vt 0.91667 0.20000 1.00000
vt 0.86111 0.40000 1.00000
vt 0.86111 0.20000 1.00000
vt 0.80556 0.40000 1.00000
vt 0.80556 0.20000 1.00000
vt 0.69444 0.60000 1.00000
vt 0.75000 0.60000 1.00000
vt 0.58333 0.60000 1.00000
vt 0.63889 0.60000 1.00000
vt 0.52778 0.60000 1.00000
vt 0.91667 0.60000 1.00000
vt 0.97222 0.60000 1.00000
vt 0.86111 0.60000 1.00000
vt 0.80556 0.60000 1.00000
vt 0.69444 0.80000 1.00000
vt 0.75000 0.80000 1.00000
vt 0.58333 0.80000 1.00000
vt 0.63889 0.80000 1.00000
vt 0.52778 0.80000 1.00000
vt 0.91667 0.80000 1.00000
vt 0.97222 0.80000 1.00000
vt 0.86111 0.80000 1.00000
vt 0.80556 0.80000 1.00000
vt 0.75000 0.91102 1.00000
vt 0.69444 0.91102 1.00000
vt 0.63889 0.91102 1.00000
vt 0.58333 0.91102 1.00000
vt 0.52778 0.91102 1.00000
vt 0.97222 0.91102 1.00000
vt 0.91667 0.91102 1.00000
vt 0.86111 0.91102 1.00000
vt 0.80556 0.91102 1.00000
vt 0.91667 1.00000 1.00000
vt 0.86111 1.00000 1.00000
vt 0.80556 1.00000 1.00000
vt 0.75000 1.00000 1.00000
vt 0.69444 1.00000 1.00000
vt 0.63889 1.00000 1.00000
vt 0.58333 1.00000 1.00000
vt 0.52778 1.00000 1.00000
vt 0.97222 1.00000 1.00000
# 72 texture coords

o Cylinder001
g Cylinder001
usemtl 01___Default
s 8
f 1/1/1 2/2/2 3/3/3 
f 3/3/3 4/4/4 1/1/1 
f 4/4/4 3/3/3 5/5/5 
f 5/5/5 6/6/6 4/4/4 
f 6/6/6 5/5/5 7/7/7 
f 7/7/7 8/8/8 6/6/6 
f 8/8/8 7/7/7 9/9/9 
f 9/9/9 10/10/9 8/8/8 
f 10/11/9 9/12/9 11/13/10 
f 11/13/10 12/14/10 10/11/9 
f 12/14/10 11/13/10 13/15/11 
f 13/15/11 14/16/12 12/14/10 
f 14/16/12 13/15/11 15/17/13 
f 15/17/13 16/18/14 14/16/12 
f 16/18/14 15/17/13 2/2/2 
f 2/2/2 1/1/1 16/18/14 
f 17/19/15 18/20/16 19/21/17 
f 19/21/17 20/22/15 17/19/15 
f 21/23/8 22/24/18 23/25/18 
f 23/25/18 24/26/8 21/23/8 
f 25/27/9 21/23/8 24/26/8 
f 24/26/8 26/28/9 25/27/9 
f 27/29/10 25/30/9 26/31/9 
f 26/31/9 28/32/10 27/29/10 
f 29/33/12 27/29/10 28/32/10 
f 28/32/10 30/34/19 29/33/12 
f 31/35/20 29/33/12 30/34/19 
f 30/34/19 32/36/21 31/35/20 
f 18/20/16 31/35/20 32/36/21 
f 32/36/21 19/21/17 18/20/16 
f 33/37/22 34/38/23 18/20/16 
f 18/20/16 17/19/15 33/37/22 
f 35/39/8 36/40/18 22/24/18 
f 22/24/18 21/23/8 35/39/8 
f 37/41/9 35/39/8 21/23/8 
f 21/23/8 25/27/9 37/41/9 
f 38/42/10 37/43/9 25/30/9 
f 25/30/9 27/29/10 38/42/10 
f 39/44/12 38/42/10 27/29/10 
f 27/29/10 29/33/12 39/44/12 
f 40/45/24 39/44/12 29/33/12 
f 29/33/12 31/35/20 40/45/24 
f 34/38/23 40/45/24 31/35/20 
f 31/35/20 18/20/16 34/38/23 
f 41/46/25 42/47/26 34/38/23 
f 34/38/23 33/37/22 41/46/25 
f 43/48/8 44/49/18 36/40/18 
f 36/40/18 35/39/8 43/48/8 
f 45/50/9 43/48/8 35/39/8 
f 35/39/8 37/41/9 45/50/9 
f 46/51/10 45/52/9 37/43/9 
f 37/43/9 38/42/10 46/51/10 
f 47/53/12 46/51/10 38/42/10 
f 38/42/10 39/44/12 47/53/12 
f 48/54/27 47/53/12 39/44/12 
f 39/44/12 40/45/24 48/54/27 
f 42/47/26 48/54/27 40/45/24 
f 40/45/24 34/38/23 42/47/26 
f 49/55/28 42/47/26 41/46/25 
f 41/46/25 50/56/29 49/55/28 
f 51/57/30 44/49/18 43/48/8 
f 43/48/8 52/58/8 51/57/30 
f 52/58/8 43/48/8 45/50/9 
f 45/50/9 53/59/9 52/58/8 
f 53/60/9 45/52/9 46/51/10 
f 46/51/10 54/61/10 53/60/9 
f 55/62/12 54/61/10 46/51/10 
f 46/51/10 47/53/12 55/62/12 
f 55/62/12 47/53/12 48/54/27 
f 48/54/27 56/63/27 55/62/12 
f 56/63/27 48/54/27 42/47/26 
f 42/47/26 49/55/28 56/63/27 
s off
f 57/64/31 58/65/31 59/66/31 
f 59/66/32 60/67/32 61/68/32 
f 61/68/33 62/69/33 63/70/33 
f 59/66/34 61/68/34 63/70/34 
f 57/64/35 59/66/35 63/70/35 
f 57/64/36 63/70/36 64/71/36 
f 7/7/37 5/5/37 3/3/37 
f 3/3/38 2/2/38 15/17/38 
f 7/7/39 3/3/39 15/17/39 
f 15/17/40 13/15/40 11/13/40 
f 7/7/41 15/17/41 11/13/41 
f 7/7/42 11/13/42 9/12/42 
s 8
f 1/1/1 4/4/4 20/22/15 
f 20/22/15 19/21/17 1/1/1 
f 6/6/6 8/8/8 24/26/8 
f 24/26/8 23/25/18 6/6/6 
f 8/8/8 10/10/9 26/28/9 
f 26/28/9 24/26/8 8/8/8 
f 10/11/9 12/14/10 28/32/10 
f 28/32/10 26/31/9 10/11/9 
f 12/14/10 14/16/12 30/34/19 
f 30/34/19 28/32/10 12/14/10 
f 14/16/12 16/18/14 32/36/21 
f 32/36/21 30/34/19 14/16/12 
f 49/55/28 50/56/29 61/68/43 
f 61/68/43 60/67/44 49/55/28 
f 61/68/43 50/56/29 51/57/30 
f 51/57/30 62/69/45 61/68/43 
f 51/57/30 52/58/8 63/70/46 
f 63/70/46 62/69/45 51/57/30 
f 52/58/8 53/59/9 64/71/9 
f 64/71/9 63/70/46 52/58/8 
f 53/60/9 54/61/10 57/64/47 
f 57/64/47 64/72/9 53/60/9 
f 54/61/10 55/62/12 58/65/48 
f 58/65/48 57/64/47 54/61/10 
f 55/62/12 56/63/27 59/66/49 
f 59/66/49 58/65/48 55/62/12 
f 56/63/27 49/55/28 60/67/44 
f 60/67/44 59/66/49 56/63/27 
f 65/24/50 66/19/50 67/22/50 
f 67/22/50 68/25/50 65/24/50 
f 69/40/50 70/37/51 66/19/50 
f 66/19/50 65/24/50 69/40/50 
f 71/49/52 72/46/53 70/37/51 
f 70/37/51 69/40/50 71/49/52 
f 73/56/54 72/46/53 71/49/52 
f 71/49/52 74/57/54 73/56/54 
f 75/4/50 76/6/50 68/25/50 
f 68/25/50 67/22/50 75/4/50 
# 122 faces

#
# object Object001
#

v  -39.34605 26.21189 -0.08673
v  -39.34605 21.62545 0.16964
v  -30.97482 21.62545 0.16965
v  -30.97482 26.21189 -0.08672
# 4 vertices

vn -0.00000 0.05581 0.99844
# 1 vertex normals

vt 0.01414 0.97878 -0.00000
vt 0.00678 0.02349 0.99998
vt 0.98586 0.02122 1.00000
vt 0.99322 0.97651 0.00002
# 4 texture coords

o Object001
g Object001
usemtl 02___Default
s 8
f 77/73/55 78/74/55 79/75/55 
f 79/75/55 80/76/55 77/73/55 
# 2 faces

