# 3ds Max Wavefront OBJ Exporter v0.97b - (c)2007 guruware
# File Created: 29.10.2019 12:53:29

mtllib proyecor.mtl

#
# object Box001
#

v  -9.11530 1.19894 -1.01425
v  -9.11530 9.31775 -1.01425
v  19.43797 9.31775 -1.01425
v  19.43797 1.19894 -1.01425
v  -9.11530 1.19894 -0.91425
v  19.43797 1.19894 -0.91425
v  19.43797 9.31775 -0.91425
v  -9.11530 9.31775 -0.91425
# 8 vertices

vn 0.00000 0.00000 -1.00000
vn 0.00000 -0.00000 1.00000
vn 0.00000 -1.00000 -0.00000
vn 1.00000 0.00000 -0.00000
vn 0.00000 1.00000 0.00000
vn -1.00000 0.00000 -0.00000
# 6 vertex normals

vt 1.00000 0.00000 0.00000
vt 1.00000 1.00000 0.00000
vt 0.00000 1.00000 0.00000
vt 0.00000 0.00000 0.00000
# 4 texture coords

o Box001
g Box001
usemtl 08___Default
s 2
f 1/1/1 2/2/1 3/3/1 
f 3/3/1 4/4/1 1/1/1 
s 4
f 5/4/2 6/1/2 7/2/2 
f 7/2/2 8/3/2 5/4/2 
s 8
f 1/4/3 4/1/3 6/2/3 
f 6/2/3 5/3/3 1/4/3 
s 16
f 4/4/4 3/1/4 7/2/4 
f 7/2/4 6/3/4 4/4/4 
s 32
f 3/4/5 2/1/5 8/2/5 
f 8/2/5 7/3/5 3/4/5 
s 64
f 2/4/6 1/1/6 5/2/6 
f 5/2/6 8/3/6 2/4/6 
# 12 faces

#
# object Box002
#

v  19.16176 0.57172 -27.09997
v  19.16176 10.13254 -27.09997
v  -9.49479 10.13254 -28.27394
v  -9.49479 0.57172 -28.27394
v  19.19282 0.57172 -27.19502
v  -9.51797 0.57172 -28.37121
v  -9.51797 10.13254 -28.37121
v  19.19282 10.13254 -27.19502
# 8 vertices

vn -0.04093 0.00000 0.99916
vn 0.04093 -0.00000 -0.99916
vn -0.00000 -1.00000 0.00000
vn -0.97276 0.00000 0.23182
vn 0.00000 1.00000 -0.00000
vn 0.95054 0.00000 0.31061
# 6 vertex normals

vt 0.00000 0.00000 0.00000
vt 0.00000 1.00000 0.00000
vt 1.00000 1.00000 0.00000
vt 1.00000 -0.00000 0.00000
vt 0.00000 0.00000 1.00000
vt 1.00000 -0.00000 1.00000
vt 1.00000 1.00000 1.00000
vt 0.00000 1.00000 1.00000
# 8 texture coords

o Box002
g Box002
usemtl 01___Default
s 2
f 9/5/7 10/6/7 11/7/7 
f 11/7/7 12/8/7 9/5/7 
s 4
f 13/9/8 14/10/8 15/11/8 
f 15/11/8 16/12/8 13/9/8 
s 8
f 9/5/9 12/8/9 14/10/9 
f 14/10/9 13/9/9 9/5/9 
s 16
f 12/8/10 11/7/10 15/11/10 
f 15/11/10 14/10/10 12/8/10 
s 32
f 11/7/11 10/6/11 16/12/11 
f 16/12/11 15/11/11 11/7/11 
s 64
f 10/6/12 9/5/12 13/9/12 
f 13/9/12 16/12/12 10/6/12 
# 12 faces

#
# object Box003
#

v  -9.22012 1.87345 -28.18216
v  -9.22012 8.65060 -28.18216
v  -9.22012 8.65060 -0.75428
v  -9.22012 1.87345 -0.75428
v  -9.31369 1.87345 -28.18216
v  -9.31369 1.87345 -0.75428
v  -9.31369 8.65060 -0.75428
v  -9.31369 8.65060 -28.18216
# 8 vertices

vn 1.00000 0.00000 0.00000
vn -1.00000 -0.00000 -0.00000
vn 0.00000 -1.00000 0.00000
vn -0.00000 0.00000 1.00000
vn -0.00000 1.00000 -0.00000
vn 0.00000 0.00000 -1.00000
# 6 vertex normals

vt 0.00000 0.00000 0.00000
vt 1.00000 0.00000 0.00000
vt 1.00000 1.00000 0.00000
vt 0.00000 1.00000 0.00000
# 4 texture coords

o Box003
g Box003
usemtl 02___Default
s 2
f 17/13/13 18/14/13 19/15/13 
f 19/15/13 20/16/13 17/13/13 
s 4
f 21/13/14 22/14/14 23/15/14 
f 23/15/14 24/16/14 21/13/14 
s 8
f 17/13/15 20/14/15 22/15/15 
f 22/15/15 21/16/15 17/13/15 
s 16
f 20/13/16 19/14/16 23/15/16 
f 23/15/16 22/16/16 20/13/16 
s 32
f 19/13/17 18/14/17 24/15/17 
f 24/15/17 23/16/17 19/13/17 
s 64
f 18/13/18 17/14/18 21/15/18 
f 21/15/18 24/16/18 18/13/18 
# 12 faces

#
# object Box004
#

v  19.11558 0.88546 -26.78770
v  19.11558 8.38561 -26.78770
v  19.11558 8.38561 -1.41644
v  19.11558 0.88546 -1.41644
v  19.01558 0.88546 -26.78770
v  19.01558 0.88546 -1.41644
v  19.01558 8.38561 -1.41644
v  19.01558 8.38561 -26.78770
# 8 vertices

vn 1.00000 0.00000 0.00000
vn -1.00000 -0.00000 -0.00000
vn 0.00000 -1.00000 0.00000
vn -0.00000 0.00000 1.00000
vn -0.00000 1.00000 -0.00000
vn 0.00000 0.00000 -1.00000
# 6 vertex normals

vt 1.00000 0.00000 0.00000
vt 1.00000 1.00000 0.00000
vt 0.00000 1.00000 0.00000
vt 0.00000 0.00000 0.00000
# 4 texture coords

o Box004
g Box004
usemtl 07___Default
s 2
f 25/17/19 26/18/19 27/19/19 
f 27/19/19 28/20/19 25/17/19 
s 4
f 29/20/20 30/17/20 31/18/20 
f 31/18/20 32/19/20 29/20/20 
s 8
f 25/20/21 28/17/21 30/18/21 
f 30/18/21 29/19/21 25/20/21 
s 16
f 28/20/22 27/17/22 31/18/22 
f 31/18/22 30/19/22 28/20/22 
s 32
f 27/20/23 26/17/23 32/18/23 
f 32/18/23 31/19/23 27/20/23 
s 64
f 26/20/24 25/17/24 29/18/24 
f 29/18/24 32/19/24 26/20/24 
# 12 faces

#
# object Box006
#

v  -9.76602 8.45636 -1.38255
v  -9.76602 8.45636 -27.93319
v  19.50316 8.45636 -27.93319
v  19.50316 8.45636 -1.38255
v  -9.76602 8.54992 -1.38255
v  19.50316 8.54992 -1.38255
v  19.50316 8.54992 -27.93319
v  -9.76602 8.54992 -27.93319
# 8 vertices

vn 0.00000 -1.00000 -0.00000
vn 0.00000 1.00000 -0.00000
vn 0.00000 0.00000 1.00000
vn 1.00000 0.00000 -0.00000
vn 0.00000 0.00000 -1.00000
vn -1.00000 0.00000 -0.00000
# 6 vertex normals

vt 1.00000 0.00000 0.00000
vt 1.00000 1.00000 0.00000
vt 0.00000 1.00000 0.00000
vt 0.00000 0.00000 0.00000
# 4 texture coords

o Box006
g Box006
usemtl 03___Default
s 2
f 33/21/25 34/22/25 35/23/25 
f 35/23/25 36/24/25 33/21/25 
s 4
f 37/24/26 38/21/26 39/22/26 
f 39/22/26 40/23/26 37/24/26 
s 8
f 33/24/27 36/21/27 38/22/27 
f 38/22/27 37/23/27 33/24/27 
s 16
f 36/24/28 35/21/28 39/22/28 
f 39/22/28 38/23/28 36/24/28 
s 32
f 35/24/29 34/21/29 40/22/29 
f 40/22/29 39/23/29 35/24/29 
s 64
f 34/24/30 33/21/30 37/22/30 
f 37/22/30 40/23/30 34/24/30 
# 12 faces

